<svg width="145" height="44" viewBox="0 0 145 44" fill="none" xmlns="http://www.w3.org/2000/svg">
<path d="M1.0666 29.1112C0.933268 29.1112 0.866602 29.0446 0.866602 28.9112L0.946602 1.43122C0.946602 1.32456 0.999935 1.27122 1.1066 1.27122L8.5866 1.23122C10.0533 1.20456 11.3866 1.55122 12.5866 2.27122C13.8133 2.99122 14.7866 3.96455 15.5066 5.19122C16.2266 6.39122 16.5866 7.72456 16.5866 9.19122V20.6712C16.5866 22.2179 16.2133 23.6312 15.4666 24.9112C14.7199 26.1646 13.7199 27.1646 12.4666 27.9112C11.2133 28.6579 9.79994 29.0446 8.2266 29.0712L1.0666 29.1112ZM5.7466 24.1912H8.2266C9.21327 24.1912 10.0399 23.8446 10.7066 23.1512C11.3999 22.4579 11.7466 21.6312 11.7466 20.6712V9.15122C11.7466 8.29789 11.4266 7.56456 10.7866 6.95122C10.1733 6.31122 9.43994 6.00456 8.5866 6.03122L5.7866 6.07122L5.7466 24.1912Z" fill="#5DFDCB"/>
<path d="M17.5925 28.9112L22.5525 1.43122C22.5792 1.32456 22.6459 1.27122 22.7525 1.27122H28.5525C28.6592 1.27122 28.7259 1.32456 28.7525 1.43122L33.5125 28.9112C33.5392 29.0446 33.4859 29.1112 33.3525 29.1112H28.9125C28.8059 29.1112 28.7392 29.0446 28.7125 28.9112L28.2725 25.9912H22.8325L22.3925 28.9112C22.3659 29.0446 22.2992 29.1112 22.1925 29.1112H17.7525C17.6459 29.1112 17.5925 29.0446 17.5925 28.9112ZM23.6325 21.7112H27.4725L25.8325 10.4712L25.5925 8.99122L25.4325 10.4712L23.6325 21.7112Z" fill="#5DFDCB"/>
<path d="M36.1828 29.1112C36.0762 29.1112 36.0229 29.0446 36.0229 28.9112L36.1029 1.43122C36.1029 1.32456 36.1562 1.27122 36.2629 1.27122H44.3429C45.7829 1.27122 47.1029 1.63122 48.3029 2.35122C49.5295 3.04456 50.5029 3.99122 51.2229 5.19122C51.9429 6.36456 52.3029 7.69789 52.3029 9.19122C52.3029 10.1779 52.1562 11.0712 51.8629 11.8712C51.5695 12.6446 51.2229 13.3112 50.8229 13.8712C50.4229 14.4046 50.0629 14.8046 49.7429 15.0712C51.1829 16.6712 51.9029 18.5512 51.9029 20.7112L51.9429 28.9112C51.9429 29.0446 51.8762 29.1112 51.7429 29.1112H47.2229C47.1162 29.1112 47.0629 29.0712 47.0629 28.9912V20.7112C47.0629 19.7512 46.7162 18.9246 46.0229 18.2312C45.3562 17.5112 44.5295 17.1512 43.5429 17.1512H40.9029L40.8629 28.9112C40.8629 29.0446 40.8095 29.1112 40.7029 29.1112H36.1828ZM40.9029 12.3512H44.3429C45.1695 12.3512 45.9029 12.0446 46.5429 11.4312C47.1829 10.8179 47.5029 10.0712 47.5029 9.19122C47.5029 8.33789 47.1829 7.60456 46.5429 6.99122C45.9295 6.37789 45.1962 6.07122 44.3429 6.07122H40.9029V12.3512Z" fill="#5DFDCB"/>
<path d="M58.5385 29.1112C58.4318 29.1112 58.3785 29.0446 58.3785 28.9112V6.11122H53.1785C53.0451 6.11122 52.9785 6.04455 52.9785 5.91122L53.0185 1.43122C53.0185 1.32456 53.0718 1.27122 53.1785 1.27122H68.3785C68.5118 1.27122 68.5785 1.32456 68.5785 1.43122V5.91122C68.5785 6.04455 68.5251 6.11122 68.4185 6.11122H63.1785L63.2185 28.9112C63.2185 29.0446 63.1651 29.1112 63.0585 29.1112H58.5385Z" fill="#5DFDCB"/>
<path d="M70.7141 29.1112C70.6074 29.1112 70.5541 29.0446 70.5541 28.9112L70.6341 1.43122C70.6341 1.32456 70.6874 1.27122 70.7941 1.27122H75.6741C75.7808 1.27122 75.8741 1.32456 75.9541 1.43122L79.5941 6.71122L83.2341 1.43122C83.3141 1.32456 83.4074 1.27122 83.5141 1.27122H88.4341C88.5408 1.27122 88.5941 1.32456 88.5941 1.43122L88.6741 28.9112C88.6741 29.0446 88.6208 29.1112 88.5141 29.1112H83.9941C83.8874 29.1112 83.8341 29.0446 83.8341 28.9112L83.7941 8.51122L79.5941 14.5912L75.4341 8.51122L75.3941 28.9112C75.3941 29.0446 75.3408 29.1112 75.2341 29.1112H70.7141Z" fill="#5DFDCB"/>
<path d="M99.4385 29.5112C97.9985 29.5112 96.6785 29.1512 95.4785 28.4312C94.3051 27.6846 93.3585 26.7112 92.6385 25.5112C91.9185 24.2846 91.5585 22.9379 91.5585 21.4712L91.5985 8.79122C91.5985 7.32456 91.9451 5.99122 92.6385 4.79122C93.3585 3.59122 94.3185 2.63122 95.5185 1.91122C96.7185 1.19122 98.0251 0.831223 99.4385 0.831223C100.878 0.831223 102.185 1.19122 103.358 1.91122C104.532 2.63122 105.465 3.59122 106.158 4.79122C106.878 5.99122 107.238 7.32456 107.238 8.79122L107.278 21.4712C107.278 22.9379 106.918 24.2846 106.198 25.5112C105.505 26.7112 104.558 27.6846 103.358 28.4312C102.185 29.1512 100.878 29.5112 99.4385 29.5112ZM99.4385 24.6712C100.238 24.6712 100.932 24.3512 101.518 23.7112C102.132 23.0446 102.438 22.2979 102.438 21.4712L102.398 8.79122C102.398 7.91122 102.118 7.16456 101.558 6.55122C100.998 5.93789 100.292 5.63122 99.4385 5.63122C98.6118 5.63122 97.9051 5.93789 97.3185 6.55122C96.7318 7.13789 96.4385 7.88455 96.4385 8.79122V21.4712C96.4385 22.3512 96.7318 23.1112 97.3185 23.7512C97.9051 24.3646 98.6118 24.6712 99.4385 24.6712Z" fill="#5DFDCB"/>
<path d="M117.72 29.5112C116.28 29.5112 114.96 29.1512 113.76 28.4312C112.586 27.6846 111.64 26.7112 110.92 25.5112C110.2 24.2846 109.84 22.9379 109.84 21.4712L109.88 8.79122C109.88 7.32456 110.226 5.99122 110.92 4.79122C111.64 3.59122 112.6 2.63122 113.8 1.91122C115 1.19122 116.306 0.831223 117.72 0.831223C119.16 0.831223 120.466 1.19122 121.64 1.91122C122.813 2.63122 123.746 3.59122 124.44 4.79122C125.16 5.99122 125.52 7.32456 125.52 8.79122L125.56 21.4712C125.56 22.9379 125.2 24.2846 124.48 25.5112C123.786 26.7112 122.84 27.6846 121.64 28.4312C120.466 29.1512 119.16 29.5112 117.72 29.5112ZM117.72 24.6712C118.52 24.6712 119.213 24.3512 119.8 23.7112C120.413 23.0446 120.72 22.2979 120.72 21.4712L120.68 8.79122C120.68 7.91122 120.4 7.16456 119.84 6.55122C119.28 5.93789 118.573 5.63122 117.72 5.63122C116.893 5.63122 116.186 5.93789 115.6 6.55122C115.013 7.13789 114.72 7.88455 114.72 8.79122V21.4712C114.72 22.3512 115.013 23.1112 115.6 23.7512C116.186 24.3646 116.893 24.6712 117.72 24.6712Z" fill="#5DFDCB"/>
<path d="M128.761 29.1112C128.654 29.1112 128.601 29.0446 128.601 28.9112L128.681 1.43122C128.681 1.32456 128.734 1.27122 128.841 1.27122H136.921C138.361 1.27122 139.681 1.63122 140.881 2.35122C142.108 3.04456 143.081 3.99122 143.801 5.19122C144.521 6.36456 144.881 7.69789 144.881 9.19122C144.881 10.1779 144.734 11.0712 144.441 11.8712C144.148 12.6446 143.801 13.3112 143.401 13.8712C143.001 14.4046 142.641 14.8046 142.321 15.0712C143.761 16.6712 144.481 18.5512 144.481 20.7112L144.521 28.9112C144.521 29.0446 144.454 29.1112 144.321 29.1112H139.801C139.694 29.1112 139.641 29.0712 139.641 28.9912V20.7112C139.641 19.7512 139.294 18.9246 138.601 18.2312C137.934 17.5112 137.108 17.1512 136.121 17.1512H133.481L133.441 28.9112C133.441 29.0446 133.388 29.1112 133.281 29.1112H128.761ZM133.481 12.3512H136.921C137.748 12.3512 138.481 12.0446 139.121 11.4312C139.761 10.8179 140.081 10.0712 140.081 9.19122C140.081 8.33789 139.761 7.60456 139.121 6.99122C138.508 6.37789 137.774 6.07122 136.921 6.07122H133.481V12.3512Z" fill="#5DFDCB"/>
<path d="M1.01465 38.7118C1.52572 38.3244 2.11165 38.1308 2.77246 38.1308C4.25684 38.1308 4.99902 38.9462 4.99902 40.577V43.1112H4.07129V40.6356C4.07129 40.0725 3.97363 39.6542 3.77832 39.3808C3.56022 39.0683 3.20378 38.912 2.70898 38.912C2.17839 38.912 1.73405 39.0422 1.37598 39.3026C1.25879 39.384 1.16439 39.4784 1.09277 39.5858V43.1112H0.165039V38.2284H0.873047L1.01465 38.7118Z" fill="#5DFDCB"/>
<path d="M9.88672 42.4862C9.29102 42.968 8.66439 43.2089 8.00684 43.2089C7.54785 43.2089 7.16211 43.0884 6.84961 42.8475C6.51432 42.5871 6.34668 42.247 6.34668 41.827C6.34668 40.9612 6.92285 40.3834 8.0752 40.0936C8.54069 39.9765 9.09896 39.9114 9.75 39.8983C9.73047 39.3677 9.47168 39.0552 8.97363 38.9608C8.81087 38.9283 8.65788 38.912 8.51465 38.912C8.37142 38.912 8.24447 38.9185 8.13379 38.9315C8.02311 38.9446 7.90918 38.9625 7.79199 38.9852C7.53483 39.0341 7.31673 39.0943 7.1377 39.1659L6.87891 38.4725C7.33464 38.2447 7.88477 38.1308 8.5293 38.1308C9.53516 38.1308 10.1976 38.4514 10.5166 39.0927C10.624 39.314 10.6777 39.5777 10.6777 39.8837V41.4413C10.6777 41.7733 10.7021 41.9947 10.751 42.1054C10.8389 42.317 10.9935 42.452 11.2148 42.5106L11.0781 43.1112C10.4694 43.1828 10.0723 42.9745 9.88672 42.4862ZM8.12891 40.8602C7.82617 40.9742 7.60807 41.1011 7.47461 41.2411C7.34115 41.3778 7.27441 41.5259 7.27441 41.6854C7.27441 41.8449 7.2972 41.967 7.34277 42.0517C7.38835 42.133 7.44857 42.2014 7.52344 42.2567C7.67643 42.3707 7.85547 42.4276 8.06055 42.4276C8.26562 42.4276 8.44954 42.4065 8.6123 42.3642C8.77832 42.3186 8.93132 42.26 9.07129 42.1884C9.34473 42.0517 9.57096 41.8824 9.75 41.6806V40.6259C8.97526 40.6649 8.4349 40.7431 8.12891 40.8602Z" fill="#5DFDCB"/>
<path d="M12.4746 38.9804H11.9521V38.3749L13.1533 37.4716H13.4023V38.2284H14.7988V38.9804H13.4023V40.953C13.4023 41.5064 13.4723 41.884 13.6123 42.0858C13.7523 42.2844 14.0257 42.4065 14.4326 42.452L14.291 43.1112C13.3145 43.2349 12.7367 42.8492 12.5576 41.954C12.5023 41.6871 12.4746 41.399 12.4746 41.0897V38.9804Z" fill="#5DFDCB"/>
<path d="M19.6328 42.6376C19.1836 43.0184 18.64 43.2089 18.002 43.2089C17.2207 43.2089 16.6624 43.0022 16.3271 42.5888C16.0114 42.2046 15.8535 41.5959 15.8535 40.7626V38.2284H16.7812V40.704C16.7812 41.2704 16.8659 41.6871 17.0352 41.954C17.2337 42.2697 17.5771 42.4276 18.0654 42.4276C18.5635 42.4276 18.9753 42.2909 19.3008 42.0175C19.4017 41.9328 19.4863 41.8401 19.5547 41.7392V38.2284H20.4824V43.1112H19.7744L19.6328 42.6376Z" fill="#5DFDCB"/>
<path d="M25.0869 39.2489C24.8883 39.1317 24.6849 39.0731 24.4766 39.0731C24.2715 39.0731 24.1006 39.1252 23.9639 39.2294C23.8304 39.3336 23.7132 39.4654 23.6123 39.6249C23.4137 39.9309 23.2803 40.289 23.2119 40.6991V43.1112H22.2842V38.2284H23.0508L23.207 39.122C23.4577 38.663 23.7783 38.3586 24.1689 38.2089C24.3089 38.1568 24.4359 38.1308 24.5498 38.1308C24.667 38.1308 24.7533 38.134 24.8086 38.1405C24.8639 38.1438 24.9176 38.1503 24.9697 38.16C25.0739 38.1861 25.1829 38.2252 25.2969 38.2772L25.0869 39.2489Z" fill="#5DFDCB"/>
<path d="M29.9111 38.6581C30.0837 38.8306 30.2188 39.0487 30.3164 39.3124C30.4173 39.5728 30.4678 39.8479 30.4678 40.1376C30.4678 40.4273 30.4352 40.7675 30.3701 41.1581H26.9717C27.0433 41.552 27.2028 41.8628 27.4502 42.0907C27.6976 42.3153 28.0475 42.4276 28.5 42.4276C29.1055 42.4276 29.6605 42.317 30.165 42.0956L30.3213 42.7938C29.986 42.9892 29.5075 43.1177 28.8857 43.1796C28.7132 43.1991 28.4886 43.2089 28.2119 43.2089C27.9352 43.2089 27.6455 43.1535 27.3428 43.0429C27.04 42.9322 26.7894 42.7694 26.5908 42.5546C26.1969 42.1281 26 41.5031 26 40.6796C26 39.9569 26.236 39.3515 26.708 38.8632C27.1865 38.3749 27.7839 38.1308 28.5 38.1308C29.0892 38.1308 29.5596 38.3065 29.9111 38.6581ZM29.584 40.4403L29.6035 40.1767C29.6035 39.5809 29.3805 39.1854 28.9346 38.9901C28.7848 38.925 28.6058 38.8925 28.3975 38.8925C28.1891 38.8925 27.9971 38.9332 27.8213 39.0145C27.6488 39.0959 27.499 39.2066 27.3721 39.3466C27.1117 39.633 26.9652 39.9976 26.9326 40.4403H29.584Z" fill="#5DFDCB"/>
<path d="M37.875 42.4862C37.2793 42.968 36.6527 43.2089 35.9951 43.2089C35.5361 43.2089 35.1504 43.0884 34.8379 42.8475C34.5026 42.5871 34.335 42.247 34.335 41.827C34.335 40.9612 34.9111 40.3834 36.0635 40.0936C36.529 39.9765 37.0872 39.9114 37.7383 39.8983C37.7188 39.3677 37.46 39.0552 36.9619 38.9608C36.7992 38.9283 36.6462 38.912 36.5029 38.912C36.3597 38.912 36.2327 38.9185 36.1221 38.9315C36.0114 38.9446 35.8975 38.9625 35.7803 38.9852C35.5231 39.0341 35.305 39.0943 35.126 39.1659L34.8672 38.4725C35.3229 38.2447 35.873 38.1308 36.5176 38.1308C37.5234 38.1308 38.1859 38.4514 38.5049 39.0927C38.6123 39.314 38.666 39.5777 38.666 39.8837V41.4413C38.666 41.7733 38.6904 41.9947 38.7393 42.1054C38.8271 42.317 38.9818 42.452 39.2031 42.5106L39.0664 43.1112C38.4577 43.1828 38.0605 42.9745 37.875 42.4862ZM36.1172 40.8602C35.8145 40.9742 35.5964 41.1011 35.4629 41.2411C35.3294 41.3778 35.2627 41.5259 35.2627 41.6854C35.2627 41.8449 35.2855 41.967 35.3311 42.0517C35.3766 42.133 35.4368 42.2014 35.5117 42.2567C35.6647 42.3707 35.8438 42.4276 36.0488 42.4276C36.2539 42.4276 36.4378 42.4065 36.6006 42.3642C36.7666 42.3186 36.9196 42.26 37.0596 42.1884C37.333 42.0517 37.5592 41.8824 37.7383 41.6806V40.6259C36.9635 40.6649 36.4232 40.7431 36.1172 40.8602Z" fill="#5DFDCB"/>
<path d="M40.4629 38.9804H39.9404V38.3749L41.1416 37.4716H41.3906V38.2284H42.7871V38.9804H41.3906V40.953C41.3906 41.5064 41.4606 41.884 41.6006 42.0858C41.7406 42.2844 42.014 42.4065 42.4209 42.452L42.2793 43.1112C41.3027 43.2349 40.7249 42.8492 40.5459 41.954C40.4906 41.6871 40.4629 41.399 40.4629 41.0897V38.9804Z" fill="#5DFDCB"/>
<path d="M47.8652 36.2216C47.8652 36.4039 47.8099 36.5503 47.6992 36.661C47.5885 36.7717 47.4421 36.827 47.2598 36.827C47.0775 36.827 46.931 36.7717 46.8203 36.661C46.7096 36.5503 46.6543 36.4039 46.6543 36.2216C46.6543 36.0393 46.7096 35.8944 46.8203 35.787C46.931 35.6763 47.0775 35.621 47.2598 35.621C47.4421 35.621 47.5885 35.6763 47.6992 35.787C47.8099 35.8944 47.8652 36.0393 47.8652 36.2216ZM46.7959 38.2284H47.7236V43.1112H46.7959V38.2284Z" fill="#5DFDCB"/>
<path d="M49.4277 38.9804H48.9053V38.3749L50.1064 37.4716H50.3555V38.2284H51.752V38.9804H50.3555V40.953C50.3555 41.5064 50.4255 41.884 50.5654 42.0858C50.7054 42.2844 50.9788 42.4065 51.3857 42.452L51.2441 43.1112C50.2676 43.2349 49.6898 42.8492 49.5107 41.954C49.4554 41.6871 49.4277 41.399 49.4277 41.0897V38.9804Z" fill="#5DFDCB"/>
<path d="M52.7139 41.9149C53.098 42.1786 53.5374 42.3511 54.0322 42.4325C54.1885 42.4586 54.335 42.4716 54.4717 42.4716C54.6084 42.4716 54.737 42.4586 54.8574 42.4325C54.9779 42.4065 55.0869 42.3642 55.1846 42.3056C55.3929 42.1786 55.4971 41.9963 55.4971 41.7587C55.4971 41.5503 55.3441 41.3762 55.0381 41.2362C54.9014 41.1744 54.7451 41.1158 54.5693 41.0604L54.0322 40.8847C53.5732 40.7284 53.2559 40.5819 53.0801 40.4452C52.9076 40.3085 52.779 40.1669 52.6943 40.0204C52.613 39.8739 52.5723 39.6933 52.5723 39.4784C52.5723 39.2603 52.6227 39.0666 52.7236 38.8974C52.8278 38.7248 52.9661 38.5816 53.1387 38.4677C53.4772 38.2431 53.8695 38.1308 54.3154 38.1308C55.1162 38.1308 55.7607 38.3049 56.249 38.6532L55.8877 39.3319C55.3864 39.0227 54.8737 38.8681 54.3496 38.8681C53.9818 38.8681 53.723 38.9739 53.5732 39.1854C53.5244 39.2571 53.5 39.3466 53.5 39.454C53.5 39.5614 53.5407 39.6542 53.6221 39.7323C53.7067 39.8104 53.8174 39.8804 53.9541 39.9423C54.0908 40.0009 54.2471 40.0578 54.4229 40.1132L54.96 40.2792C55.4157 40.4322 55.7314 40.5787 55.9072 40.7186C56.249 40.9921 56.4199 41.3176 56.4199 41.6952C56.4199 42.1867 56.2132 42.5692 55.7998 42.8427C55.432 43.0868 54.9648 43.2089 54.3984 43.2089C53.806 43.2089 53.2705 43.0917 52.792 42.8573C52.6325 42.7824 52.4909 42.6929 52.3672 42.5888L52.7139 41.9149Z" fill="#5DFDCB"/>
<path d="M61.5127 38.6239C61.9521 38.2951 62.4795 38.1308 63.0947 38.1308C63.7946 38.1308 64.3594 38.3619 64.7891 38.8241C65.209 39.2733 65.4189 39.856 65.4189 40.5722C65.4189 41.3502 65.113 41.9914 64.501 42.496C63.9183 42.9712 63.2087 43.2089 62.3721 43.2089C62.0042 43.2089 61.6396 43.1828 61.2783 43.1308C60.917 43.0787 60.6859 43.0396 60.585 43.0136V35.4892H61.5127V38.6239ZM61.5127 42.2616C61.7601 42.3723 62.0498 42.4276 62.3818 42.4276C62.7171 42.4276 63.0085 42.3869 63.2559 42.3056C63.5033 42.2242 63.7181 42.107 63.9004 41.954C64.2943 41.622 64.4912 41.1809 64.4912 40.6308C64.4912 40.1457 64.3643 39.7437 64.1104 39.4247C63.8337 39.0829 63.474 38.912 63.0312 38.912C62.5527 38.912 62.141 39.039 61.7959 39.2929C61.6787 39.3775 61.5843 39.4752 61.5127 39.5858V42.2616Z" fill="#5DFDCB"/>
<path d="M70.2627 38.6581C70.4352 38.8306 70.5703 39.0487 70.668 39.3124C70.7689 39.5728 70.8193 39.8479 70.8193 40.1376C70.8193 40.4273 70.7868 40.7675 70.7217 41.1581H67.3232C67.3949 41.552 67.5544 41.8628 67.8018 42.0907C68.0492 42.3153 68.3991 42.4276 68.8516 42.4276C69.457 42.4276 70.012 42.317 70.5166 42.0956L70.6729 42.7938C70.3376 42.9892 69.859 43.1177 69.2373 43.1796C69.0648 43.1991 68.8402 43.2089 68.5635 43.2089C68.2868 43.2089 67.9971 43.1535 67.6943 43.0429C67.3916 42.9322 67.141 42.7694 66.9424 42.5546C66.5485 42.1281 66.3516 41.5031 66.3516 40.6796C66.3516 39.9569 66.5876 39.3515 67.0596 38.8632C67.5381 38.3749 68.1354 38.1308 68.8516 38.1308C69.4408 38.1308 69.9111 38.3065 70.2627 38.6581ZM69.9355 40.4403L69.9551 40.1767C69.9551 39.5809 69.7321 39.1854 69.2861 38.9901C69.1364 38.925 68.9574 38.8925 68.749 38.8925C68.5407 38.8925 68.3486 38.9332 68.1729 39.0145C68.0003 39.0959 67.8506 39.2066 67.7236 39.3466C67.4632 39.633 67.3167 39.9976 67.2842 40.4403H69.9355Z" fill="#5DFDCB"/>
<path d="M71.9912 41.9149C72.3753 42.1786 72.8148 42.3511 73.3096 42.4325C73.4658 42.4586 73.6123 42.4716 73.749 42.4716C73.8857 42.4716 74.0143 42.4586 74.1348 42.4325C74.2552 42.4065 74.3643 42.3642 74.4619 42.3056C74.6702 42.1786 74.7744 41.9963 74.7744 41.7587C74.7744 41.5503 74.6214 41.3762 74.3154 41.2362C74.1787 41.1744 74.0225 41.1158 73.8467 41.0604L73.3096 40.8847C72.8506 40.7284 72.5332 40.5819 72.3574 40.4452C72.1849 40.3085 72.0563 40.1669 71.9717 40.0204C71.8903 39.8739 71.8496 39.6933 71.8496 39.4784C71.8496 39.2603 71.9001 39.0666 72.001 38.8974C72.1051 38.7248 72.2435 38.5816 72.416 38.4677C72.7546 38.2431 73.1468 38.1308 73.5928 38.1308C74.3936 38.1308 75.0381 38.3049 75.5264 38.6532L75.165 39.3319C74.6637 39.0227 74.151 38.8681 73.627 38.8681C73.2591 38.8681 73.0003 38.9739 72.8506 39.1854C72.8018 39.2571 72.7773 39.3466 72.7773 39.454C72.7773 39.5614 72.818 39.6542 72.8994 39.7323C72.984 39.8104 73.0947 39.8804 73.2314 39.9423C73.3682 40.0009 73.5244 40.0578 73.7002 40.1132L74.2373 40.2792C74.693 40.4322 75.0088 40.5787 75.1846 40.7186C75.5264 40.9921 75.6973 41.3176 75.6973 41.6952C75.6973 42.1867 75.4906 42.5692 75.0771 42.8427C74.7093 43.0868 74.2422 43.2089 73.6758 43.2089C73.0833 43.2089 72.5479 43.0917 72.0693 42.8573C71.9098 42.7824 71.7682 42.6929 71.6445 42.5888L71.9912 41.9149Z" fill="#5DFDCB"/>
<path d="M76.918 38.9804H76.3955V38.3749L77.5967 37.4716H77.8457V38.2284H79.2422V38.9804H77.8457V40.953C77.8457 41.5064 77.9157 41.884 78.0557 42.0858C78.1956 42.2844 78.4691 42.4065 78.876 42.452L78.7344 43.1112C77.7578 43.2349 77.18 42.8492 77.001 41.954C76.9456 41.6871 76.918 41.399 76.918 41.0897V38.9804Z" fill="#5DFDCB"/>
</svg>
